<?xml version="1.0" encoding="utf-8"?>
<!-- Generator: Adobe Illustrator 16.0.0, SVG Export Plug-In . SVG Version: 6.00 Build 0)  -->
<!DOCTYPE svg PUBLIC "-//W3C//DTD SVG 1.1//EN" "http://www.w3.org/Graphics/SVG/1.1/DTD/svg11.dtd">
<svg version="1.1" id="_x30_" xmlns="http://www.w3.org/2000/svg" xmlns:xlink="http://www.w3.org/1999/xlink" x="0px" y="0px"
	 width="640px" height="480px" viewBox="0 0 640 480" enable-background="new 0 0 640 480" xml:space="preserve">
<g id="LWPOLYLINE">
	
		<path fill="none" stroke="#000000" stroke-width="0.7087" stroke-linecap="round" stroke-linejoin="round" stroke-miterlimit="10" d="
		M299.816,35.223"/>
</g>
<path fill="#E0277A" d="M560.196,253.371v-26.742l-35.327-5.861c-0.814-8.673-2.179-17.285-4.085-25.785l31.788-16.491
	l-8.264-25.434l-35.41,5.343c-3.454-7.997-7.413-15.766-11.852-23.261l25.135-25.506l-15.719-21.635l-32.025,16.023
	c-5.756-6.538-11.922-12.704-18.46-18.46l16.023-32.025l-21.635-15.719l-25.507,25.136c-7.494-4.439-15.264-8.398-23.261-11.852
	l5.343-35.41l-25.434-8.264l-16.49,31.787c-8.5-1.906-17.112-3.27-25.786-4.084l-5.86-35.328h-26.742l-5.861,35.328
	c-8.673,0.814-17.285,2.178-25.785,4.084L258.492,7.428l-25.434,8.264l5.343,35.41c-7.997,3.454-15.766,7.413-23.261,11.852
	l-25.506-25.136l-21.635,15.719l16.023,32.025c-6.538,5.756-12.704,11.922-18.46,18.46l-32.025-16.023l-15.719,21.635l25.136,25.506
	c-4.439,7.495-8.398,15.265-11.852,23.261l-35.41-5.343l-8.264,25.434l31.787,16.491c-1.906,8.5-3.27,17.112-4.084,25.785
	l-35.328,5.861v26.742l35.328,5.86c0.814,8.674,2.178,17.286,4.084,25.786l-31.787,16.49l8.264,25.434l35.41-5.343
	c3.454,7.997,7.413,15.767,11.852,23.261l-25.136,25.507l15.719,21.635l32.025-16.023c5.756,6.538,11.922,12.704,18.46,18.46
	l-16.023,32.025l21.635,15.719l25.506-25.135c7.495,4.438,15.265,8.397,23.261,11.852l-5.343,35.41l25.434,8.264l16.491-31.788
	c8.5,1.906,17.112,3.271,25.785,4.084l5.861,35.328h26.742l5.86-35.328c8.674-0.813,17.286-2.178,25.786-4.084l16.49,31.788
	l25.434-8.264l-5.343-35.41c7.997-3.454,15.767-7.413,23.261-11.852l25.507,25.135l21.635-15.719l-16.023-32.025
	c6.538-5.756,12.704-11.922,18.46-18.46l32.025,16.023l15.719-21.635l-25.135-25.507c4.438-7.494,8.397-15.264,11.852-23.261
	l35.41,5.343l8.264-25.434l-31.788-16.49c1.906-8.5,3.271-17.112,4.085-25.786L560.196,253.371z M306.629,82.428V192.5
	c-16.543,4.657-29.473,17.586-34.129,34.129H162.428C168.943,149.849,229.849,88.943,306.629,82.428z M306.629,397.572
	c-76.78-6.515-137.686-67.421-144.201-144.201H272.5c4.657,16.544,17.586,29.473,34.129,34.13V397.572z M320,260.965
	c-11.578,0-20.964-9.387-20.964-20.965s9.386-20.964,20.964-20.964s20.965,9.386,20.965,20.964S331.578,260.965,320,260.965z
	 M333.371,397.572V287.501c16.544-4.657,29.473-17.586,34.13-34.13h110.071C471.058,330.151,410.151,391.058,333.371,397.572z
	 M367.501,226.629c-4.657-16.543-17.586-29.473-34.13-34.129V82.428c76.78,6.515,137.687,67.421,144.201,144.201H367.501z"/>
</svg>
