<?xml version="1.0" encoding="utf-8"?>
<!-- Generator: Adobe Illustrator 16.0.0, SVG Export Plug-In . SVG Version: 6.00 Build 0)  -->
<!DOCTYPE svg PUBLIC "-//W3C//DTD SVG 1.1//EN" "http://www.w3.org/Graphics/SVG/1.1/DTD/svg11.dtd">
<svg version="1.1" id="Layer_1" xmlns="http://www.w3.org/2000/svg" xmlns:xlink="http://www.w3.org/1999/xlink" x="0px" y="0px"
	 width="640px" height="480px" viewBox="0 0 640 480" enable-background="new 0 0 640 480" xml:space="preserve">
<g id="LWPOLYLINE_10_">
	<g id="XMLID_4_">
		<g>
			<path fill="#E0277A" d="M80.099-17.3l1.42,9l-11.57,3.85c0.19,2.97,0.19,5.94,0,8.9l11.57,3.85l-1.42,9l-12.2,0.08
				c-0.74,2.88-1.65,5.7-2.75,8.46l9.82,7.24l-4.14,8.12l-11.63-3.69c-1.58,2.51-3.33,4.91-5.22,7.2l7.09,9.92l-6.44,6.44l-9.92-7.1
				c-2.28,1.89-4.68,3.64-7.19,5.23l3.69,11.62l-8.12,4.14l-7.24-9.82c-2.76,1.1-5.58,2.02-8.46,2.75l-0.09,12.2l-8.99,1.42
				l-3.86-11.57c-2.96,0.19-5.93,0.19-8.89,0l-3.85,11.57l-9-1.42l-0.09-12.2c-2.87-0.73-5.7-1.65-8.45-2.75l-7.25,9.82l-8.11-4.14
				l3.68-11.62c-2.5-1.59-4.91-3.34-7.19-5.23l-9.92,7.1l-6.44-6.44l7.1-9.92c-1.9-2.29-3.64-4.69-5.23-7.2l-11.63,3.69l-4.13-8.12
				l9.81-7.24c-1.09-2.76-2.01-5.58-2.74-8.46l-12.2-0.08l-1.43-9l11.58-3.85c-0.19-2.96-0.19-5.93,0-8.9l-11.58-3.85l1.43-9
				l12.2-0.08c0.73-2.88,1.65-5.7,2.74-8.46l-9.81-7.24l4.13-8.12l11.63,3.69c1.59-2.51,3.33-4.91,5.23-7.2l-7.1-9.92l6.44-6.44
				l9.92,7.1c2.28-1.89,4.69-3.64,7.19-5.23l-3.68-11.62l8.11-4.14l7.25,9.82c2.75-1.1,5.58-2.02,8.45-2.75l0.09-12.2l9-1.42
				l3.85,11.57c2.96-0.19,5.93-0.19,8.89,0l3.86-11.57l8.99,1.42l0.09,12.2c2.88,0.73,5.7,1.65,8.46,2.75l7.24-9.82l8.12,4.14
				l-3.69,11.62c2.51,1.59,4.91,3.34,7.19,5.23l9.92-7.1l6.44,6.44l-7.09,9.92c1.89,2.29,3.64,4.69,5.22,7.2l11.63-3.69l4.14,8.12
				l-9.82,7.24c1.1,2.76,2.01,5.58,2.75,8.46L80.099-17.3z M16.189-4.55h37.48c-2.21-26.15-22.96-46.9-49.11-49.12v37.49
				C10.199-14.59,14.599-10.19,16.189-4.55z M53.669,4.55h-37.48c-1.59,5.64-5.99,10.04-11.63,11.63v37.49
				C30.709,51.45,51.459,30.7,53.669,4.55z M7.149,0c0-3.94-3.2-7.14-7.14-7.14c-3.95,0-7.14,3.2-7.14,7.14s3.19,7.14,7.14,7.14
				C3.949,7.14,7.149,3.94,7.149,0z M-4.551,53.67V16.18c-5.63-1.59-10.03-5.99-11.62-11.63h-37.49
				C-51.441,30.7-30.701,51.45-4.551,53.67z M-4.551-16.18v-37.49c-26.15,2.22-46.89,22.97-49.11,49.12h37.49
				C-14.581-10.19-10.181-14.59-4.551-16.18z"/>
		</g>
		<g>
		</g>
	</g>
</g>
</svg>
