  0
SECTION
  2
HEADER
  9
$ACADVER
  1
AC1021
  9
$ACADMAINTVER
 70
    25
  9
$DWGCODEPAGE
  3
ANSI_1252
  9
$LASTSAVEDBY
  1
kaos
  9
$INSBASE
 10
0.0
 20
0.0
 30
0.0
  9
$EXTMIN
 10
-12.08503518499657
 20
-12.08503518499657
 30
0.0
  9
$EXTMAX
 10
12.08503518499657
 20
12.08503518499657
 30
0.0
  9
$LIMMIN
 10
0.0
 20
0.0
  9
$LIMMAX
 10
12.0
 20
9.0
  9
$ORTHOMODE
 70
     1
  9
$REGENMODE
 70
     1
  9
$FILLMODE
 70
     1
  9
$QTEXTMODE
 70
     0
  9
$MIRRTEXT
 70
     0
  9
$LTSCALE
 40
1.0
  9
$ATTMODE
 70
     1
  9
$TEXTSIZE
 40
0.2
  9
$TRACEWID
 40
0.05
  9
$TEXTSTYLE
  7
Standard
  9
$CLAYER
  8
0
  9
$CELTYPE
  6
ByLayer
  9
$CECOLOR
 62
   256
  9
$CELTSCALE
 40
1.0
  9
$DISPSILH
 70
     0
  9
$DIMSCALE
 40
1.0
  9
$DIMASZ
 40
0.18
  9
$DIMEXO
 40
0.0625
  9
$DIMDLI
 40
0.38
  9
$DIMRND
 40
0.0
  9
$DIMDLE
 40
0.0
  9
$DIMEXE
 40
0.18
  9
$DIMTP
 40
0.0
  9
$DIMTM
 40
0.0
  9
$DIMTXT
 40
0.18
  9
$DIMCEN
 40
0.09
  9
$DIMTSZ
 40
0.0
  9
$DIMTOL
 70
     0
  9
$DIMLIM
 70
     0
  9
$DIMTIH
 70
     1
  9
$DIMTOH
 70
     1
  9
$DIMSE1
 70
     0
  9
$DIMSE2
 70
     0
  9
$DIMTAD
 70
     0
  9
$DIMZIN
 70
     0
  9
$DIMBLK
  1

  9
$DIMASO
 70
     1
  9
$DIMSHO
 70
     1
  9
$DIMPOST
  1

  9
$DIMAPOST
  1

  9
$DIMALT
 70
     0
  9
$DIMALTD
 70
     2
  9
$DIMALTF
 40
25.4
  9
$DIMLFAC
 40
1.0
  9
$DIMTOFL
 70
     0
  9
$DIMTVP
 40
0.0
  9
$DIMTIX
 70
     0
  9
$DIMSOXD
 70
     0
  9
$DIMSAH
 70
     0
  9
$DIMBLK1
  1

  9
$DIMBLK2
  1

  9
$DIMSTYLE
  2
Standard
  9
$DIMCLRD
 70
     0
  9
$DIMCLRE
 70
     0
  9
$DIMCLRT
 70
     0
  9
$DIMTFAC
 40
1.0
  9
$DIMGAP
 40
0.09
  9
$DIMJUST
 70
     0
  9
$DIMSD1
 70
     0
  9
$DIMSD2
 70
     0
  9
$DIMTOLJ
 70
     1
  9
$DIMTZIN
 70
     0
  9
$DIMALTZ
 70
     0
  9
$DIMALTTZ
 70
     0
  9
$DIMUPT
 70
     0
  9
$DIMDEC
 70
     4
  9
$DIMTDEC
 70
     4
  9
$DIMALTU
 70
     2
  9
$DIMALTTD
 70
     2
  9
$DIMTXSTY
  7
Standard
  9
$DIMAUNIT
 70
     0
  9
$DIMADEC
 70
     0
  9
$DIMALTRND
 40
0.0
  9
$DIMAZIN
 70
     0
  9
$DIMDSEP
 70
    46
  9
$DIMATFIT
 70
     3
  9
$DIMFRAC
 70
     0
  9
$DIMLDRBLK
  1

  9
$DIMLUNIT
 70
     2
  9
$DIMLWD
 70
    -2
  9
$DIMLWE
 70
    -2
  9
$DIMTMOVE
 70
     0
  9
$DIMFXL
 40
1.0
  9
$DIMFXLON
 70
     0
  9
$DIMJOGANG
 40
0.7853981633974483
  9
$DIMTFILL
 70
     0
  9
$DIMTFILLCLR
 70
     0
  9
$DIMARCSYM
 70
     0
  9
$DIMLTYPE
  6

  9
$DIMLTEX1
  6

  9
$DIMLTEX2
  6

  9
$LUNITS
 70
     2
  9
$LUPREC
 70
     4
  9
$SKETCHINC
 40
0.1
  9
$FILLETRAD
 40
0.0
  9
$AUNITS
 70
     0
  9
$AUPREC
 70
     0
  9
$MENU
  1
.
  9
$ELEVATION
 40
0.0
  9
$PELEVATION
 40
0.0
  9
$THICKNESS
 40
0.0
  9
$LIMCHECK
 70
     0
  9
$CHAMFERA
 40
0.0
  9
$CHAMFERB
 40
0.0
  9
$CHAMFERC
 40
0.0
  9
$CHAMFERD
 40
0.0
  9
$SKPOLY
 70
     0
  9
$TDCREATE
 40
2452643.105050926
  9
$TDUCREATE
 40
2452643.063384271
  9
$TDUPDATE
 40
2456430.401643507
  9
$TDUUPDATE
 40
2456430.359976852
  9
$TDINDWG
 40
0.0
  9
$TDUSRTIMER
 40
0.0
  9
$USRTIMER
 70
     1
  9
$ANGBASE
 50
0.0
  9
$ANGDIR
 70
     0
  9
$PDMODE
 70
     0
  9
$PDSIZE
 40
0.0
  9
$PLINEWID
 40
0.0
  9
$SPLFRAME
 70
     0
  9
$SPLINETYPE
 70
     6
  9
$SPLINESEGS
 70
     8
  9
$HANDSEED
  5
46
  9
$SURFTAB1
 70
     6
  9
$SURFTAB2
 70
     6
  9
$SURFTYPE
 70
     6
  9
$SURFU
 70
     6
  9
$SURFV
 70
     6
  9
$UCSBASE
  2

  9
$UCSNAME
  2

  9
$UCSORG
 10
0.0
 20
0.0
 30
0.0
  9
$UCSXDIR
 10
1.0
 20
0.0
 30
0.0
  9
$UCSYDIR
 10
0.0
 20
1.0
 30
0.0
  9
$UCSORTHOREF
  2

  9
$UCSORTHOVIEW
 70
     0
  9
$UCSORGTOP
 10
0.0
 20
0.0
 30
0.0
  9
$UCSORGBOTTOM
 10
0.0
 20
0.0
 30
0.0
  9
$UCSORGLEFT
 10
0.0
 20
0.0
 30
0.0
  9
$UCSORGRIGHT
 10
0.0
 20
0.0
 30
0.0
  9
$UCSORGFRONT
 10
0.0
 20
0.0
 30
0.0
  9
$UCSORGBACK
 10
0.0
 20
0.0
 30
0.0
  9
$PUCSBASE
  2

  9
$PUCSNAME
  2

  9
$PUCSORG
 10
0.0
 20
0.0
 30
0.0
  9
$PUCSXDIR
 10
1.0
 20
0.0
 30
0.0
  9
$PUCSYDIR
 10
0.0
 20
1.0
 30
0.0
  9
$PUCSORTHOREF
  2

  9
$PUCSORTHOVIEW
 70
     0
  9
$PUCSORGTOP
 10
0.0
 20
0.0
 30
0.0
  9
$PUCSORGBOTTOM
 10
0.0
 20
0.0
 30
0.0
  9
$PUCSORGLEFT
 10
0.0
 20
0.0
 30
0.0
  9
$PUCSORGRIGHT
 10
0.0
 20
0.0
 30
0.0
  9
$PUCSORGFRONT
 10
0.0
 20
0.0
 30
0.0
  9
$PUCSORGBACK
 10
0.0
 20
0.0
 30
0.0
  9
$USERI1
 70
     0
  9
$USERI2
 70
     0
  9
$USERI3
 70
     0
  9
$USERI4
 70
     0
  9
$USERI5
 70
     0
  9
$USERR1
 40
0.0
  9
$USERR2
 40
0.0
  9
$USERR3
 40
0.0
  9
$USERR4
 40
0.0
  9
$USERR5
 40
0.0
  9
$WORLDVIEW
 70
     1
  9
$SHADEDGE
 70
     3
  9
$SHADEDIF
 70
    70
  9
$TILEMODE
 70
     1
  9
$MAXACTVP
 70
    64
  9
$PINSBASE
 10
0.0
 20
0.0
 30
0.0
  9
$PLIMCHECK
 70
     0
  9
$PEXTMIN
 10
0.0
 20
0.0
 30
0.0
  9
$PEXTMAX
 10
0.0
 20
0.0
 30
0.0
  9
$PLIMMIN
 10
0.0
 20
0.0
  9
$PLIMMAX
 10
0.0
 20
0.0
  9
$UNITMODE
 70
     0
  9
$VISRETAIN
 70
     1
  9
$PLINEGEN
 70
     0
  9
$PSLTSCALE
 70
     1
  9
$TREEDEPTH
 70
  3020
  9
$CMLSTYLE
  2
Standard
  9
$CMLJUST
 70
     0
  9
$CMLSCALE
 40
1.0
  9
$PROXYGRAPHICS
 70
     1
  9
$MEASUREMENT
 70
     0
  9
$CELWEIGHT
370
    -1
  9
$ENDCAPS
280
     0
  9
$JOINSTYLE
280
     0
  9
$LWDISPLAY
290
     0
  9
$INSUNITS
 70
     1
  9
$HYPERLINKBASE
  1

  9
$STYLESHEET
  1

  9
$XEDIT
290
     1
  9
$CEPSNTYPE
380
     0
  9
$PSTYLEMODE
290
     0
  9
$FINGERPRINTGUID
  2
{FDEAD576-A652-11D2-9A35-0060089B3A3F}
  9
$VERSIONGUID
  2
{FBC2AE19-5C5C-49EC-81BC-71B1A3362A02}
  9
$EXTNAMES
290
     1
  9
$PSVPSCALE
 40
0.0
  9
$OLESTARTUP
290
     0
  9
$SORTENTS
280
   127
  9
$INDEXCTL
280
     0
  9
$HIDETEXT
280
     1
  9
$XCLIPFRAME
290
     0
  9
$HALOGAP
280
     0
  9
$OBSCOLOR
 70
   257
  9
$OBSLTYPE
280
     0
  9
$INTERSECTIONDISPLAY
280
     0
  9
$INTERSECTIONCOLOR
 70
   257
  9
$DIMASSOC
280
     2
  9
$PROJECTNAME
  1

  9
$CAMERADISPLAY
290
     0
  9
$LENSLENGTH
 40
50.0
  9
$CAMERAHEIGHT
 40
0.0
  9
$STEPSPERSEC
 40
2.0
  9
$STEPSIZE
 40
6.0
  9
$3DDWFPREC
 40
2.0
  9
$PSOLWIDTH
 40
0.25
  9
$PSOLHEIGHT
 40
4.0
  9
$LOFTANG1
 40
1.570796326794897
  9
$LOFTANG2
 40
1.570796326794897
  9
$LOFTMAG1
 40
0.0
  9
$LOFTMAG2
 40
0.0
  9
$LOFTPARAM
 70
     7
  9
$LOFTNORMALS
280
     1
  9
$LATITUDE
 40
37.795
  9
$LONGITUDE
 40
-122.394
  9
$NORTHDIRECTION
 40
0.0
  9
$TIMEZONE
 70
 -8000
  9
$LIGHTGLYPHDISPLAY
280
     1
  9
$TILEMODELIGHTSYNCH
280
     1
  9
$SOLIDHIST
280
     1
  9
$SHOWHIST
280
     1
  9
$DWFFRAME
280
     2
  9
$DGNFRAME
280
     0
  9
$REALWORLDSCALE
290
     1
  9
$INTERFERECOLOR
 62
     1
  9
$CSHADOW
280
     0
  9
$SHADOWPLANELOCATION
 40
0.0
  0
ENDSEC
  0
SECTION
  2
CLASSES
  0
CLASS
  1
ACDBDICTIONARYWDFLT
  2
AcDbDictionaryWithDefault
  3
ObjectDBX Classes
 90
        0
 91
        7
280
     0
281
     0
  0
CLASS
  1
MATERIAL
  2
AcDbMaterial
  3
ObjectDBX Classes
 90
     1153
 91
        7
280
     0
281
     0
  0
CLASS
  1
VISUALSTYLE
  2
AcDbVisualStyle
  3
ObjectDBX Classes
 90
     4095
 91
        7
280
     0
281
     0
  0
CLASS
  1
SCALE
  2
AcDbScale
  3
ObjectDBX Classes
 90
     1153
 91
        6
280
     0
281
     0
  0
CLASS
  1
DICTIONARYVAR
  2
AcDbDictionaryVar
  3
ObjectDBX Classes
 90
        0
 91
        6
280
     0
281
     0
  0
ENDSEC
  0
SECTION
  2
TABLES
  0
TABLE
  2
VPORT
  5
20
330
0
100
AcDbSymbolTable
 70
     1
  0
VPORT
  5
25
330
20
100
AcDbSymbolTableRecord
100
AcDbViewportTableRecord
  2
*Active
 70
     0
 10
0.0
 20
0.0
 11
1.0
 21
1.0
 12
27.66959356600121
 22
19.5387029578265
 13
0.0
 23
0.0
 14
0.5
 24
0.5
 15
0.5
 25
0.5
 16
0.0
 26
0.0
 36
1.0
 17
-27.66959356597954
 27
-19.53870295786203
 37
0.0
 40
431.4456592041581
 41
1.0
 42
50.0
 43
0.0
 44
0.0
 50
0.0
 51
0.0
 71
    16
 72
  1000
 73
     1
 74
     3
 75
     0
 76
     0
 77
     0
 78
     0
281
     0
 65
     1
110
0.0
120
0.0
130
0.0
111
1.0
121
0.0
131
0.0
112
0.0
122
1.0
132
0.0
 79
     0
146
0.0
348
26
 60
     2
 61
     5
292
     1
282
     1
141
0.0
142
0.0
 63
   250
421
  3355443
  0
ENDTAB
  0
TABLE
  2
LTYPE
  5
9
330
0
100
AcDbSymbolTable
 70
     1
  0
LTYPE
  5
A
330
9
100
AcDbSymbolTableRecord
100
AcDbLinetypeTableRecord
  2
ByBlock
 70
     0
  3

 72
    65
 73
     0
 40
0.0
  0
LTYPE
  5
B
330
9
100
AcDbSymbolTableRecord
100
AcDbLinetypeTableRecord
  2
ByLayer
 70
     0
  3

 72
    65
 73
     0
 40
0.0
  0
LTYPE
  5
8
330
9
100
AcDbSymbolTableRecord
100
AcDbLinetypeTableRecord
  2
Continuous
 70
     0
  3
Solid line
 72
    65
 73
     0
 40
0.0
  0
ENDTAB
  0
TABLE
  2
LAYER
  5
2
330
0
100
AcDbSymbolTable
 70
     1
  0
LAYER
  5
1
330
2
100
AcDbSymbolTableRecord
100
AcDbLayerTableRecord
  2
0
 70
     0
 62
     7
  6
Continuous
370
    -3
390
3
347
6
  0
ENDTAB
  0
TABLE
  2
STYLE
  5
D
330
0
100
AcDbSymbolTable
 70
     1
  0
STYLE
  5
C
330
D
100
AcDbSymbolTableRecord
100
AcDbTextStyleTableRecord
  2
Standard
 70
     0
 40
0.0
 41
1.0
 50
0.0
 71
     0
 42
0.2
  3
arial.ttf
  4

1001
ACAD
1000
Arial
1071
        0
  0
ENDTAB
  0
TABLE
  2
VIEW
  5
1E
330
0
100
AcDbSymbolTable
 70
     0
  0
ENDTAB
  0
TABLE
  2
UCS
  5
1F
330
0
100
AcDbSymbolTable
 70
     0
  0
ENDTAB
  0
TABLE
  2
APPID
  5
F
330
0
100
AcDbSymbolTable
 70
     1
  0
APPID
  5
E
330
F
100
AcDbSymbolTableRecord
100
AcDbRegAppTableRecord
  2
ACAD
 70
     0
  0
ENDTAB
  0
TABLE
  2
DIMSTYLE
  5
11
330
0
100
AcDbSymbolTable
 70
     1
100
AcDbDimStyleTable
  0
DIMSTYLE
105
10
330
11
100
AcDbSymbolTableRecord
100
AcDbDimStyleTableRecord
  2
Standard
 70
     0
178
     0
340
C
  0
ENDTAB
  0
TABLE
  2
BLOCK_RECORD
  5
14
330
0
100
AcDbSymbolTable
 70
     4
  0
BLOCK_RECORD
  5
15
330
14
100
AcDbSymbolTableRecord
100
AcDbBlockTableRecord
  2
*Model_Space
340
18
 70
     0
280
     1
281
     0
  0
BLOCK_RECORD
  5
1A
330
14
100
AcDbSymbolTableRecord
100
AcDbBlockTableRecord
  2
*Paper_Space
340
1D
 70
     0
280
     1
281
     0
  0
ENDTAB
  0
ENDSEC
  0
SECTION
  2
BLOCKS
  0
BLOCK
  5
16
330
15
100
AcDbEntity
  8
0
100
AcDbBlockBegin
  2
*Model_Space
 70
     0
 10
0.0
 20
0.0
 30
0.0
  3
*Model_Space
  1

  0
ENDBLK
  5
17
330
15
100
AcDbEntity
  8
0
100
AcDbBlockEnd
  0
BLOCK
  5
1B
330
1A
100
AcDbEntity
 67
     1
  8
0
100
AcDbBlockBegin
  2
*Paper_Space
 70
     0
 10
0.0
 20
0.0
 30
0.0
  3
*Paper_Space
  1

  0
ENDBLK
  5
1C
330
1A
100
AcDbEntity
 67
     1
  8
0
100
AcDbBlockEnd
  0
ENDSEC
  0
SECTION
  2
ENTITIES
  0
LWPOLYLINE
  5
2B
330
15
100
AcDbEntity
  8
0
100
AcDbPolyline
 90
       80
 70
     1
 43
0.0
 10
16.02783486804441
 20
80.13482611533925
 10
27.12666514828442
 20
75.10202555519379
 10
24.77546236991719
 20
66.31036071906044
 10
12.64605688044247
 20
67.48961367736354
 42
-0.0317504846438461
 10
9.036338783163671
 20
59.37158257465114
 10
18.03673274205488
 20
51.1553776324339
 10
13.08383217534328
 20
43.52056911668376
 10
1.912491250574874
 20
48.39029775494998
 42
-0.0317504846438461
 10
-4.029164239433214
 20
41.78505561219151
 10
1.991772127981164
 20
31.18970567331269
 10
-5.078001810716898
 20
25.45910173030586
 10
-14.19774948575383
 20
33.54262308002797
 42
-0.0317504846438468
 10
-21.8897317311808
 20
29.09673701958343
 10
-19.43762415721636
 20
17.15938875820382
 10
-27.93223273677069
 20
13.89394082934666
 10
-34.10768271862486
 20
24.39998349960968
 42
-0.0317504846438464
 10
-42.79704690409659
 20
22.5486478253855
 10
-44.1537974977594
 20
10.43781206172514
 10
-53.24172924498458
 20
9.957164942008944
 10
-55.86838546254245
 20
21.85732427634173
 42
-0.0317504846438477
 10
-64.70455607922537
 20
22.78176062314549
 10
-69.73735663937106
 20
11.68293034290616
 10
-78.52902147550395
 20
14.03413312127293
 10
-77.34976851720108
 20
26.16353861074765
 42
-0.0317504846438461
 10
-85.4677996199128
 20
29.77325670802645
 10
-93.68400456213027
 20
20.77286274913592
 10
-101.3188130778806
 20
25.72576331584685
 10
-96.44908443961396
 20
36.89710424061548
 42
-0.0317504846438464
 10
-103.0543265823729
 20
42.83875973062356
 10
-113.6496765212519
 20
36.81782336320964
 10
-119.3802804642592
 20
43.88759730190748
 10
-111.2967591145367
 20
53.00734497694464
 42
-0.0317504846438461
 10
-115.742645174981
 20
60.69932722237161
 10
-127.6799934363608
 20
58.24721964840671
 10
-130.9454413652175
 20
66.74182822796035
 10
-120.4393986949552
 20
72.91727820981521
 42
-0.0317504846438466
 10
-122.2907343691791
 20
81.6066423952874
 10
-134.4015701328397
 20
82.96339298894998
 10
-134.8822172525559
 20
92.05132473617493
 10
-122.9820579182222
 20
94.6779809537328
 42
-0.0317504846438466
 10
-122.0576215714189
 20
103.5141515704157
 10
-133.1564518516587
 20
108.5469521305607
 10
-130.8052490732915
 20
117.3386169666945
 10
-118.6758435838167
 20
116.1593640083914
 42
-0.0317504846438457
 10
-115.0661254865377
 20
124.2773951111029
 10
-124.0665194454289
 20
132.4936000533206
 10
-119.1136188787173
 20
140.1284085690712
 10
-107.9422779539489
 20
135.2586799308041
 42
-0.0317504846438462
 10
-102.0006224639408
 20
141.863922073563
 10
-108.0215588313554
 20
152.4592720124423
 10
-100.9517848926571
 20
158.1898759554491
 10
-91.83203721762044
 20
150.1063546057266
 42
-0.0317504846438468
 10
-84.14005497219301
 20
154.5522406661711
 10
-86.59216254615745
 20
166.4895889275512
 10
-78.09755396660358
 20
169.7550368564079
 10
-71.92210398474919
 20
159.2489941861453
 42
-0.0317504846438459
 10
-63.23273979927745
 20
161.1003298603695
 10
-61.87598920561442
 20
173.2111656240294
 10
-52.78805745838969
 20
173.6918127437465
 10
-50.16140124083159
 20
161.7916534094128
 42
-0.0317504846438465
 10
-41.3252306241489
 20
160.8672170626095
 10
-36.29243006400367
 20
171.9660473428488
 10
-27.50076522787009
 20
169.6148445644816
 10
-28.68001818617296
 20
157.4854390750069
 42
-0.0317504846438461
 10
-20.56198708346147
 20
153.8757209777276
 10
-12.345782141244
 20
162.876114936619
 10
-4.710973625493409
 20
157.9232143699077
 10
-9.580702263760088
 20
146.751873445139
 42
-0.031750484643846
 10
-2.975460121001618
 20
140.8102179551314
 10
7.619889817877436
 20
146.8311543225458
 10
13.35049376088494
 20
139.7613803838475
 10
5.266972411162158
 20
130.6416327088103
 42
-0.0317504846438474
 10
9.712858471606694
 20
122.9496504633829
 10
21.65020673298653
 20
125.4017580373478
 10
24.91565466184323
 20
116.9071494577937
 10
14.40961199158113
 20
110.7316994759393
 42
-0.0317504846438457
 10
16.26094766580485
 20
102.0423352904676
 10
28.37178342946544
 20
100.6855846968045
 10
28.85243054918186
 20
91.59765294958004
 10
16.95227121484817
 20
88.97099673202217
 42
-0.0317504846438468
  0
LWPOLYLINE
  5
2C
330
15
100
AcDbEntity
  8
0
100
AcDbPolyline
 90
        4
 70
     1
 43
0.0
 10
-48.962644495608
 20
103.4542791174703
 10
-44.9589289780825
 20
139.3795102476982
 42
-0.470406553644626
 10
-7.803054550797071
 20
75.02364793999084
 10
-40.91707510516454
 20
89.51894415740196
 42
0.3717950938014455
  0
CIRCLE
  5
2D
330
15
100
AcDbEntity
  8
0
100
AcDbCircle
 10
-53.01489335168714
 20
91.82448884287749
 30
0.0
 40
7.134387647482519
  0
LWPOLYLINE
  5
2E
330
15
100
AcDbEntity
  8
0
100
AcDbPolyline
 90
       80
 70
     1
 43
0.0
 10
171.1209774777182
 20
-25.82021336605442
 10
180.9274262586918
 20
-33.05531373674069
 10
176.7958252329294
 20
-41.16403731445791
 10
165.178420106218
 20
-37.48313889292842
 42
-0.0317504846438461
 10
159.956303114204
 20
-44.67076630732174
 10
167.0470211585129
 20
-54.58211498870071
 10
160.6119016920265
 20
-61.01723445518667
 10
150.7005530106473
 20
-53.92651641087753
 42
-0.0317504846438461
 10
143.5129255962542
 20
-59.14863340289151
 10
147.1938240177842
 20
-70.76603852960272
 10
139.0851004400669
 20
-74.89763955536557
 10
131.8500000693811
 20
-65.09119077439175
 42
-0.0317504846438468
 10
123.4004372830743
 20
-67.83662014822005
 10
123.3112040979981
 20
-80.02288916324017
 10
114.3226147696366
 20
-81.44654185331922
 10
110.4719847438343
 20
-69.88428586790963
 42
-0.0317504846438464
 10
101.5875886627034
 20
-69.88428586790963
 10
97.73695863690085
 20
-81.44654185332013
 10
88.74836930853911
 20
-80.02288916324017
 10
88.65913612346316
 20
-67.83662014822005
 42
-0.0317504846438477
 10
80.20957333715631
 20
-65.0911907743922
 10
72.97447296646959
 20
-74.89763955536557
 10
64.86574938875282
 20
-70.76603852960272
 10
68.54664781028276
 20
-59.14863340289196
 42
-0.0317504846438461
 10
61.35902039588967
 20
-53.92651641087753
 10
51.4476717145107
 20
-61.01723445518667
 10
45.01255224802406
 20
-54.58211498870071
 10
52.10327029233298
 20
-44.67076630732174
 42
-0.0317504846438464
 10
46.88115330031877
 20
-37.48313889292842
 10
35.26374817360801
 20
-41.16403731445791
 10
31.13214714784539
 20
-33.05531373674069
 10
40.93859592881876
 20
-25.82021336605442
 42
-0.0317504846438461
 10
38.19316655499136
 20
-17.3706505797478
 10
26.00689753997079
 20
-17.28141739467185
 10
24.58324484989129
 20
-8.292828066310562
 10
36.14550083530133
 20
-4.442198040507833
 42
-0.0317504846438466
 10
36.14550083530133
 20
4.442198040623111
 10
24.58324484989129
 20
8.292828066425841
 10
26.00689753997079
 20
17.28141739478667
 10
38.19316655499091
 20
17.37065057986308
 42
-0.0317504846438466
 10
40.93859592881876
 20
25.8202133661697
 10
31.13214714784539
 20
33.05531373685596
 10
35.26374817360755
 20
41.16403731457319
 10
46.88115330031923
 20
37.48313889304325
 42
-0.0317504846438457
 10
52.10327029233298
 20
44.67076630743702
 10
45.01255224802406
 20
54.58211498881553
 10
51.4476717145107
 20
61.01723445530195
 10
61.35902039588967
 20
53.9265164109928
 42
-0.0317504846438462
 10
68.54664781028276
 20
59.14863340300724
 10
64.86574938875282
 20
70.766038529718
 10
72.97447296647005
 20
74.89763955548085
 10
80.20957333715631
 20
65.09119077450703
 42
-0.0317504846438468
 10
88.65913612346316
 20
67.83662014833487
 10
88.74836930853911
 20
80.02288916335544
 10
97.73695863690085
 20
81.44654185343495
 10
101.5875886627029
 20
69.8842858680249
 42
-0.0317504846438459
 10
110.4719847438341
 20
69.8842858680249
 10
114.3226147696361
 20
81.44654185343495
 10
123.3112040979981
 20
80.02288916335499
 10
123.4004372830738
 20
67.83662014833487
 42
-0.0317504846438465
 10
131.8500000693807
 20
65.09119077450703
 10
139.0851004400669
 20
74.89763955548085
 10
147.1938240177842
 20
70.76603852971846
 10
143.5129255962542
 20
59.14863340300724
 42
-0.0317504846438461
 10
150.7005530106478
 20
53.9265164109928
 10
160.6119016920265
 20
61.01723445530195
 10
167.0470211585129
 20
54.58211498881553
 10
159.956303114204
 20
44.67076630743702
 42
-0.031750484643846
 10
165.1784201062177
 20
37.48313889304325
 10
176.795825232929
 20
41.16403731457319
 10
180.9274262586916
 20
33.05531373685596
 10
171.1209774777182
 20
25.8202133661697
 42
-0.0317504846438474
 10
173.8664068515458
 20
17.37065057986308
 10
186.0526758665659
 20
17.28141739478667
 10
187.4763285566457
 20
8.292828066425841
 10
175.9140725712359
 20
4.442198040623111
 42
-0.0317504846438457
 10
175.9140725712359
 20
-4.442198040507833
 10
187.4763285566459
 20
-8.292828066309653
 10
186.0526758665662
 20
-17.28141739467185
 10
173.8664068515458
 20
-17.3706505797478
 42
-0.0317504846438468
  0
CIRCLE
  5
2F
330
15
100
AcDbEntity
  8
0
100
AcDbCircle
 10
0.0
 20
0.0
 30
0.0
 40
7.134387647482519
  0
LWPOLYLINE
  5
30
330
15
100
AcDbEntity
  8
0
100
AcDbPolyline
 90
       80
 70
     1
 43
0.0
 10
-107.9214494450146
 20
-135.2850069331226
 10
-119.0904545554457
 20
-140.1600905130132
 10
-124.0470146531337
 20
-132.527657277543
 10
-115.0505605479828
 20
-124.3071385225199
 42
-0.0317504846438461
 10
-118.6641699857778
 20
-116.1908388387052
 10
-130.7930087517721
 20
-117.3759064554598
 10
-133.1484259528939
 20
-108.5853697878516
 10
-122.0520096547601
 20
-103.5472490661665
 42
-0.0317504846438461
 10
-122.9806819241817
 20
-94.7115226363577
 10
-134.882099100734
 20
-92.09057161479734
 10
-134.4058087584879
 20
-83.0024104913465
 10
-122.2956248079109
 20
-81.63985416188928
 42
-0.0317504846438468
 10
-120.4484549967881
 20
-72.94960345116135
 10
-130.9574569486088
 20
-66.77919073851501
 10
-127.6960816802032
 20
-58.28301769092798
 10
-115.7575592588785
 20
-60.72940226071398
 42
-0.0317504846438464
 10
-111.3153612183126
 20
-53.03528955717104
 10
-119.4032536138353
 20
-43.91941814154609
 10
-113.6760395538795
 20
-36.84689778403902
 10
-103.0778044169827
 20
-42.86275408641279
 42
-0.0317504846438477
 10
-96.47541144179837
 20
-36.91793274951317
 10
-101.3504950216894
 20
-25.74892763908167
 10
-93.7180617862187
 20
-20.79236754139504
 10
-85.4975430311959
 20
-29.78882164654499
 42
-0.0317504846438461
 10
-77.38124334738092
 20
-26.17521220875017
 10
-78.56631096413622
 20
-14.04637344275591
 10
-69.77577429652757
 20
-11.69095624163413
 10
-64.73765357484245
 20
-22.78737253976772
 42
-0.0317504846438464
 10
-55.90192714503365
 20
-21.85870027034582
 10
-53.28097612347307
 20
-9.957283093793308
 10
-44.19281500002268
 20
-10.43357343604032
 10
-42.830258670565
 20
-22.54375738661713
 42
-0.0317504846438461
 10
-34.14000795983799
 20
-24.3909271977401
 10
-27.96959524719119
 20
-13.88192524591852
 10
-19.47342219960461
 20
-17.14330051432501
 10
-21.91980676938971
 20
-29.08182293564926
 42
-0.0317504846438466
 10
-14.22569406584699
 20
-33.52402097621518
 10
-5.109822650222043
 20
-25.43612858069275
 10
1.962697707284804
 20
-31.16334264064847
 10
-4.053158595088746
 20
-41.76157777754509
 42
-0.0317504846438466
 10
1.891662741810876
 20
-48.36397075272964
 10
13.06066785224192
 20
-43.48888717283819
 10
18.01722794992969
 20
-51.12132040830932
 10
9.020773844779058
 20
-59.34183916333188
 42
-0.0317504846438457
 10
12.63438328257365
 20
-67.45813884714664
 10
24.76322204856791
 20
-66.27307123039202
 10
27.11863924968969
 20
-75.06360789800067
 10
16.02222295155588
 20
-80.10172861968533
 42
-0.0317504846438462
 10
16.95089522097754
 20
-88.93745504949459
 10
28.85231239753028
 20
-91.55840607105495
 10
28.37602205528373
 20
-100.6465671945049
 10
16.26583810470669
 20
-102.009123523963
 42
-0.0317504846438468
 10
14.41866829358418
 20
-110.69937423469
 10
24.92767024540461
 20
-116.8697869473373
 10
21.66629497699904
 20
-125.3659599949234
 10
9.727772555674107
 20
-122.9195754251383
 42
-0.0317504846438459
 10
5.285574515108408
 20
-130.6136881286803
 10
13.37346691063107
 20
-139.7295595443057
 10
7.646252850675126
 20
-146.8020799018124
 10
-2.951982286221494
 20
-140.786223599439
 42
-0.0317504846438465
 10
-9.554375261405596
 20
-146.7310449363387
 10
-4.679291681514826
 20
-157.9000500467697
 10
-12.31172491698504
 20
-162.8566101444572
 10
-20.53224367200784
 20
-153.8601560393068
 42
-0.0317504846438461
 10
-28.64854335582305
 20
-157.4737654771021
 10
-27.46347573906797
 20
-169.6026042430964
 10
-36.25401240667662
 20
-171.9580214442173
 10
-41.29213312836174
 20
-160.8616051460837
 42
-0.031750484643846
 10
-50.12785955817031
 20
-161.7902774155056
 10
-52.74881057973113
 20
-173.6916945920581
 10
-61.83697170318152
 20
-173.215404249812
 10
-63.19952803263874
 20
-161.1052202992342
 42
-0.0317504846438474
 10
-71.88977874336666
 20
-159.2580504881122
 10
-78.060191456013
 20
-169.7670524399329
 10
-86.55636450359958
 20
-166.5056771715273
 10
-84.10997993381449
 20
-154.5671547502021
 42
-0.0317504846438457
 10
-91.80409263735675
 20
-150.1249567096366
 10
-100.9199640529817
 20
-158.2128491051595
 10
-107.992484410489
 20
-152.4856350452038
 10
-101.976628108115
 20
-141.8873999083067
 42
-0.0317504846438468
  0
LWPOLYLINE
  5
31
330
15
100
AcDbEntity
  8
0
100
AcDbPolyline
 90
        4
 70
     1
 43
0.0
 10
-65.11271159821086
 20
89.51894415740196
 10
-98.22673215257856
 20
75.02364793999129
 42
-0.470406553644626
 10
-61.07085772529314
 20
139.3795102476982
 10
-57.06714220776809
 20
103.4542791174707
 42
0.3717950938014455
  0
LWPOLYLINE
  5
32
330
15
100
AcDbEntity
  8
0
100
AcDbPolyline
 90
        4
 70
     1
 43
0.0
 10
-44.96932396124527
 20
82.50024325375887
 10
-15.85901892440307
 20
61.07030834094201
 42
-0.470406553644626
 10
-90.1707677789737
 20
61.07030834094201
 10
-61.06046274213151
 20
82.50024325375887
 42
0.3717950938014455
  0
CIRCLE
  5
33
330
15
100
AcDbEntity
  8
0
100
AcDbCircle
 10
-53.01489335160187
 20
-91.82448884292592
 30
0.0
 40
18.93400327004352
  0
CIRCLE
  5
34
330
15
100
AcDbEntity
  8
0
100
AcDbCircle
 10
-6.835517650709619
 20
-91.82448884292592
 30
0.0
 40
9.62920368852048
  0
CIRCLE
  5
35
330
15
100
AcDbEntity
  8
0
100
AcDbCircle
 10
-38.74468147040085
 20
-47.90529266415035
 30
0.0
 40
9.629203688520478
  0
CIRCLE
  5
36
330
15
100
AcDbEntity
  8
0
100
AcDbCircle
 10
-90.37479308324924
 20
-64.68093284586723
 30
0.0
 40
9.62920368852048
  0
CIRCLE
  5
37
330
15
100
AcDbEntity
  8
0
100
AcDbCircle
 10
-90.37479308324924
 20
-118.9680448399841
 30
0.0
 40
9.629203688520478
  0
CIRCLE
  5
38
330
15
100
AcDbEntity
  8
0
100
AcDbCircle
 10
-38.74468147040085
 20
-135.743685021701
 30
0.0
 40
9.62920368852048
  0
CIRCLE
  5
39
330
15
100
AcDbEntity
  8
0
100
AcDbCircle
 10
106.0297867032686
 20
0.0000000000571845
 30
0.0
 40
7.134387647482519
  0
LWPOLYLINE
  5
3A
330
15
100
AcDbEntity
  8
0
100
AcDbPolyline
 90
        4
 70
     1
 43
0.0
 10
101.4794700907702
 20
-53.62345974448829
 42
-0.3654501973134223
 10
52.40632695872245
 20
-4.550316612440497
 10
89.86484653877955
 20
-4.550316612440497
 42
0.2612118027683188
 10
101.4794700907702
 20
-16.16494016443141
  0
LWPOLYLINE
  5
3B
330
15
100
AcDbEntity
  8
0
100
AcDbPolyline
 90
        4
 70
     1
 43
0.0
 10
159.653246447815
 20
-4.550316612440497
 42
-0.3654501973134223
 10
110.580103315767
 20
-53.6234597444892
 10
110.580103315767
 20
-16.16494016443141
 42
0.2612118027683188
 10
122.1947268677577
 20
-4.550316612440497
  0
LWPOLYLINE
  5
3C
330
15
100
AcDbEntity
  8
0
100
AcDbPolyline
 90
        4
 70
     1
 43
0.0
 10
52.40632695872245
 20
4.550316612555775
 42
-0.3654501973134223
 10
101.4794700907702
 20
53.62345974460357
 10
101.4794700907702
 20
16.16494016454669
 42
0.2612118027683188
 10
89.86484653877955
 20
4.550316612555775
  0
LWPOLYLINE
  5
3D
330
15
100
AcDbEntity
  8
0
100
AcDbPolyline
 90
        4
 70
     1
 43
0.0
 10
110.5801033157667
 20
53.62345974460357
 42
-0.3654501973134223
 10
159.6532464478148
 20
4.550316612555775
 10
122.1947268677577
 20
4.550316612555775
 42
0.2612118027683188
 10
110.5801033157667
 20
16.16494016454669
  0
LWPOLYLINE
  5
3E
330
15
100
AcDbEntity
  8
0
100
AcDbPolyline
 90
       24
 70
     1
 43
0.0
 10
-19.53056378199591
 20
24.72729554576597
 10
-15.56014812180575
 20
14.15322935096299
 42
0.1076555563387066
 10
-20.03713022444919
 20
6.398868884578746
 10
-31.17974800053099
 20
4.550316612446636
 10
-31.17974800051599
 20
-4.55031661256055
 10
-20.03713022442781
 20
-6.398868884656281
 42
0.1076555563387077
 10
-15.56014812175937
 20
-14.15322935102142
 10
-19.53056378190632
 20
-24.72729554583623
 10
-11.64918421851536
 20
-29.27761215832345
 10
-4.476982102617342
 20
-20.55209823561529
 42
0.107655556338708
 10
4.47698210269408
 20
-20.55209823559619
 10
11.64918421862893
 20
-29.27761215827888
 10
19.53056378200489
 20
-24.72729554575983
 10
15.56014812181519
 20
-14.15322935095594
 42
0.1076555563387066
 10
20.03713022443907
 20
-6.398868884584431
 10
31.17974800054043
 20
-4.550316612441407
 10
31.17974800050632
 20
4.550316612555775
 10
20.03713022441769
 20
6.398868884650597
 42
0.1076555563387068
 10
15.56014812174971
 20
14.15322935101574
 10
19.53056378189666
 20
24.72729554583054
 10
11.64918421852479
 20
29.27761215832868
 10
4.476982102607224
 20
20.55209823561052
 42
0.1076555563387081
 10
-4.476982102684644
 20
20.55209823560233
 10
-11.6491842186195
 20
29.27761215828593
  0
CIRCLE
  5
3F
330
15
100
AcDbEntity
  8
0
100
AcDbCircle
 10
0.000000000021668
 20
-0.0000000000355325
 30
0.0
 40
211.4929701981167
  0
LWPOLYLINE
  5
40
330
15
100
AcDbEntity
  8
0
100
AcDbPolyline
 90
      180
 70
     1
 43
0.0
 10
102.2649588268602
 20
163.3180541448562
 10
97.19569172912416
 20
152.2358320680534
 10
104.7404586066888
 20
147.1468225515454
 10
113.1167351104258
 20
155.9984386187226
 42
-0.0179228458040384
 10
123.9992033155146
 20
147.4961226291704
 10
117.4369227647475
 20
137.2272575973965
 10
124.2000112544712
 20
131.1377453693052
 10
133.7266772676491
 20
138.7374657418666
 42
-0.0179228458040385
 10
143.3199443586357
 20
128.8033468608606
 10
135.3923776812749
 20
119.5477106512981
 10
141.2421519586042
 20
112.5762211404258
 10
151.7337817636986
 20
118.7761259058734
 42
-0.0179228458040385
 10
159.8511257088363
 20
107.6035604575397
 10
150.7125739727832
 20
99.5413035008777
 10
155.5351748354294
 20
91.82352882060171
 10
166.7875607923363
 20
96.5029438849631
 42
-0.0179228458040385
 10
173.270986725075
 20
84.30939314714864
 10
163.0993214449232
 20
77.5974381043672
 10
166.8008824527223
 20
69.28359596000053
 10
178.5950096681896
 20
72.35144183180368
 42
-0.0179228458040385
 10
183.3183250775363
 20
59.37423939966163
 10
172.3115261478662
 20
54.14322684093278
 10
174.8200006262645
 20
45.39513671296025
 10
186.9263098296641
 20
46.79170126193347
 42
-0.0179228458040385
 10
189.7975807538674
 20
33.28343361945653
 10
178.1698829957969
 20
29.63517925404732
 10
179.4364463424199
 20
20.62311276600489
 10
191.6193019958302
 20
20.32121345177105
 42
-0.0179228458040385
 10
192.5826424123728
 20
6.544803663193306
 10
180.5603657364526
 20
4.550316612498591
 10
180.5603657364526
 20
-4.550316612497681
 10
192.5826424123728
 20
-6.544803663192414
 42
-0.0179228458040387
 10
191.6193019958303
 20
-20.32121345177023
 10
179.43644634242
 20
-20.62311276600407
 10
178.1698829957971
 20
-29.63517925404649
 10
189.7975807538675
 20
-33.28343361945586
 42
-0.0179228458040383
 10
186.9263098296643
 20
-46.79170126193254
 10
174.8200006262648
 20
-45.39513671295934
 10
172.3115261478665
 20
-54.14322684093186
 10
183.3183250775365
 20
-59.37423939966071
 42
-0.0179228458040385
 10
178.5950096681899
 20
-72.3514418318029
 10
166.8008824527227
 20
-69.28359595999969
 10
163.0993214449236
 20
-77.59743810436636
 10
173.2709867250754
 20
-84.30939314714779
 42
-0.0179228458040387
 10
166.7875607923367
 20
-96.50294388496242
 10
155.5351748354299
 20
-91.82352882060096
 10
150.7125739727836
 20
-99.54130350087695
 10
159.8511257088368
 20
-107.6035604575389
 42
-0.0179228458040385
 10
151.7337817636991
 20
-118.7761259058728
 10
141.2421519586047
 20
-112.5762211404252
 10
135.3923776812754
 20
-119.5477106512975
 10
143.3199443586362
 20
-128.80334686086
 42
-0.0179228458040387
 10
133.7266772676496
 20
-138.7374657418661
 10
124.2000112544718
 20
-131.1377453693046
 10
117.4369227647482
 20
-137.2272575973959
 10
123.9992033155151
 20
-147.4961226291699
 42
-0.0179228458040383
 10
113.1167351104264
 20
-155.9984386187222
 10
104.7404586066896
 20
-147.1468225515449
 10
97.19569172912493
 20
-152.2358320680529
 10
102.264958826861
 20
-163.3180541448557
 42
-0.0179228458040385
 10
90.30510437265774
 20
-170.2230793334587
 10
83.24225207263387
 20
-160.2918542098493
 10
75.06265711245484
 20
-164.2813092331977
 10
78.54024323930838
 20
-175.9611855081451
 42
-0.0179228458040385
 10
65.73578749880899
 20
-181.1345214348525
 10
60.12382978864265
 20
-170.3169872552407
 10
51.46861325759777
 20
-173.1292375813378
 10
53.28683115530516
 20
-185.1794325484004
 42
-0.0179228458040385
 10
39.88699829464593
 20
-188.5203861139811
 10
35.83516554765823
 20
-177.0270938764104
 10
26.8727913903614
 20
-178.6074022515461
 10
26.99625151573598
 20
-190.7933725725836
 42
-0.0179228458040383
 10
13.26185403946587
 20
-192.2369159161619
 10
10.84901057118545
 20
-180.2915694806105
 10
1.753921206058964
 20
-180.6091769998369
 10
0.1802205481941304
 20
-192.6937366238861
 42
-0.0179228458040387
 10
-13.62141711945719
 20
-192.2117728162855
 10
-14.34830805548899
 20
-180.0468747634912
 10
-23.39908705946377
 20
-179.0955995577198
 10
-26.63931820732065
 20
-190.8435362776814
 42
-0.0179228458040387
 10
-40.23956288828234
 20
-188.4454461961911
 10
-39.26635318682186
 20
-176.2977724293851
 10
-48.09665871144108
 20
-174.0961299884367
 10
-52.94035293570528
 20
-185.2787835791366
 42
-0.0179228458040387
 10
-66.07449133731144
 20
-181.0112433194059
 10
-63.42012341818797
 20
-169.1172344906849
 10
-71.85808361073859
 20
-165.7080772803414
 10
-78.21096391295532
 20
-176.1077901097166
 42
-0.0179228458040387
 10
-90.62335497107969
 20
-170.0538624886459
 10
-86.33949308654023
 20
-158.6450219506265
 10
-94.2208726499117
 20
-154.0947053381284
 10
-101.9592874412925
 20
-163.5090588254531
 42
-0.0179228458040385
 10
-113.4083380828742
 20
-155.7865766579461
 10
-107.5783627316806
 20
-145.0849645143371
 10
-114.7497595776083
 20
-139.4820552366381
 10
-123.7230894165554
 20
-147.7278096999499
 42
-0.0179228458040384
 10
-133.9859568939582
 20
-138.4870823172038
 10
-126.7233419148228
 20
-128.7009932754771
 10
-133.0451729610437
 20
-122.154545588453
 10
-143.0787621892534
 20
-129.0712067965302
 42
-0.0179228458040385
 10
-151.9556914608684
 20
-118.4920944458785
 10
-143.401795393258
 20
-109.81200359772
 10
-148.7510133894337
 20
-102.4494366591247
 10
-159.6495696056174
 20
-107.9023796691376
 42
-0.0179228458040385
 10
-166.9677813405299
 20
-96.19079273892388
 10
-157.2890960414879
 20
-88.78564817923602
 10
-161.5615845439681
 20
-80.75026597973358
 10
-173.1129797483018
 20
-84.63335545862303
 42
-0.0179228458040385
 10
-178.7300332794343
 20
-72.01724666671107
 10
-168.1149433489653
 20
-66.03118111112111
 10
-171.2275432289329
 20
-57.47938322511305
 10
-183.2069426532815
 20
-59.71703925312126
 42
-0.0179228458040385
 10
-187.0135084229541
 20
-46.44196680653467
 10
-175.6686245120688
 20
-41.99149221203358
 10
-177.56075255339
 20
-33.08972965784512
 10
-189.7349908143235
 20
-33.63839880568293
 42
-0.0179228458040386
 10
-191.656978349734
 20
-19.96274688942331
 10
-179.8031157191436
 20
-17.13448668165316
 10
-180.437943801758
 20
-8.05602214179676
 10
-192.5700631995179
 20
-6.905025188603407
 42
-0.0179228458040385
 10
-192.570063199518
 20
6.905025188602546
 10
-180.437943801758
 20
8.056022141795896
 10
-179.8031157191436
 20
17.13448668165231
 10
-191.6569783497341
 20
19.96274688942254
 42
-0.0179228458040385
 10
-189.7349908143237
 20
33.63839880568199
 10
-177.5607525533902
 20
33.08972965784419
 10
-175.668624512069
 20
41.99149221203265
 10
-187.0135084229543
 20
46.44196680653381
 42
-0.0179228458040386
 10
-183.2069426532818
 20
59.71703925312045
 10
-171.2275432289332
 20
57.47938322511224
 10
-168.1149433489656
 20
66.03118111112029
 10
-178.7300332794346
 20
72.01724666671026
 42
-0.0179228458040384
 10
-173.1129797483023
 20
84.63335545862219
 10
-161.5615845439686
 20
80.75026597973276
 10
-157.2890960414884
 20
88.7856481792352
 10
-166.9677813405303
 20
96.19079273892302
 42
-0.0179228458040386
 10
-159.6495696056179
 20
107.9023796691369
 10
-148.7510133894342
 20
102.449436659124
 10
-143.4017953932585
 20
109.8120035977193
 10
-151.9556914608688
 20
118.4920944458778
 42
-0.0179228458040384
 10
-143.0787621892541
 20
129.0712067965295
 10
-133.0451729610444
 20
122.1545455884523
 10
-126.7233419148235
 20
128.7009932754764
 10
-133.9859568939588
 20
138.4870823172031
 42
-0.0179228458040385
 10
-123.7230894165561
 20
147.7278096999494
 10
-114.749759577609
 20
139.4820552366376
 10
-107.5783627316813
 20
145.0849645143365
 10
-113.4083380828748
 20
155.7865766579455
 42
-0.0179228458040385
 10
-101.9592874412932
 20
163.5090588254527
 10
-94.22087264991237
 20
154.094705338128
 10
-86.33949308654088
 20
158.6450219506261
 10
-90.62335497108029
 20
170.0538624886455
 42
-0.0179228458040385
 10
-78.21096391295612
 20
176.1077901097163
 10
-71.85808361073938
 20
165.7080772803411
 10
-63.42012341818877
 20
169.1172344906846
 10
-66.07449133731215
 20
181.0112433194056
 42
-0.0179228458040385
 10
-52.94035293570616
 20
185.2787835791364
 10
-48.09665871144196
 20
174.0961299884364
 10
-39.26635318682274
 20
176.2977724293849
 10
-40.23956288828313
 20
188.4454461961909
 42
-0.0179228458040385
 10
-26.6393182073216
 20
190.8435362776813
 10
-23.39908705946471
 20
179.0955995577197
 10
-14.34830805548994
 20
180.0468747634911
 10
-13.62141711945805
 20
192.2117728162854
 42
-0.0179228458040385
 10
0.1802205481931823
 20
192.6937366238862
 10
1.753921206058018
 20
180.6091769998369
 10
10.8490105711845
 20
180.2915694806105
 10
13.26185403946501
 20
192.2369159161619
 42
-0.0179228458040385
 10
26.99625151573517
 20
190.7933725725838
 10
26.87279139036059
 20
178.6074022515463
 10
35.83516554765741
 20
177.0270938764105
 10
39.88699829464521
 20
188.5203861139812
 42
-0.0179228458040385
 10
53.28683115530434
 20
185.1794325484007
 10
51.46861325759694
 20
173.1292375813381
 10
60.12382978864182
 20
170.3169872552409
 10
65.73578749880824
 20
181.1345214348527
 42
-0.0179228458040385
 10
78.54024323930756
 20
175.9611855081455
 10
75.06265711245402
 20
164.2813092331981
 10
83.24225207263305
 20
160.2918542098497
 10
90.30510437265698
 20
170.2230793334591
 42
-0.0179228458040385
  0
ENDSEC
  0
SECTION
  2
OBJECTS
  0
DICTIONARY
  5
5
330
0
100
AcDbDictionary
281
     1
  3
ACAD_COLOR
350
23
  3
ACAD_GROUP
350
21
  3
ACAD_LAYOUT
350
19
  3
ACAD_MATERIAL
350
7
  3
ACAD_MLEADERSTYLE
350
44
  3
ACAD_MLINESTYLE
350
13
  3
ACAD_PLOTSETTINGS
350
22
  3
ACAD_PLOTSTYLENAME
350
4
  3
ACAD_SCALELIST
350
27
  3
ACAD_TABLESTYLE
350
43
  3
ACAD_VISUALSTYLE
350
24
  3
AcDbVariableDictionary
350
41
  0
DICTIONARY
  5
23
102
{ACAD_REACTORS
330
5
102
}
330
5
100
AcDbDictionary
281
     1
  0
DICTIONARY
  5
21
102
{ACAD_REACTORS
330
5
102
}
330
5
100
AcDbDictionary
281
     1
  0
DICTIONARY
  5
19
102
{ACAD_REACTORS
330
5
102
}
330
5
100
AcDbDictionary
281
     1
  3
Model
350
18
  3
Sheet1
350
1D
  0
DICTIONARY
  5
7
102
{ACAD_REACTORS
330
5
102
}
330
5
100
AcDbDictionary
281
     1
  3
ByBlock
350
2A
  3
ByLayer
350
29
  3
Global
350
6
  0
DICTIONARY
  5
44
102
{ACAD_REACTORS
330
5
102
}
330
5
100
AcDbDictionary
281
     1
  0
DICTIONARY
  5
13
102
{ACAD_REACTORS
330
5
102
}
330
5
100
AcDbDictionary
281
     1
  3
Standard
350
12
  0
DICTIONARY
  5
22
102
{ACAD_REACTORS
330
5
102
}
330
5
100
AcDbDictionary
281
     1
  0
ACDBDICTIONARYWDFLT
  5
4
102
{ACAD_REACTORS
330
5
102
}
330
5
100
AcDbDictionary
281
     1
  3
Normal
350
3
100
AcDbDictionaryWithDefault
340
3
  0
DICTIONARY
  5
27
102
{ACAD_REACTORS
330
5
102
}
330
5
100
AcDbDictionary
281
     1
  3
*A1
350
28
  0
DICTIONARY
  5
43
102
{ACAD_REACTORS
330
5
102
}
330
5
100
AcDbDictionary
281
     1
  0
DICTIONARY
  5
24
102
{ACAD_REACTORS
330
5
102
}
330
5
100
AcDbDictionary
281
     1
  3
2dWireframe
350
26
  0
DICTIONARY
  5
41
102
{ACAD_REACTORS
330
5
102
}
330
5
100
AcDbDictionary
281
     1
  3
CANNOSCALE
350
42
  3
XCLIPFRAME
350
45
  0
LAYOUT
  5
18
102
{ACAD_REACTORS
330
19
330
19
102
}
330
19
100
AcDbPlotSettings
  1

  2
none_device
  4
ANSI_A_(8.50_x_11.00_Inches)
  6

 40
6.35
 41
19.05
 42
6.35
 43
19.05
 44
215.9
 45
279.4
 46
11.11250000000003
 47
0.0000000000000142
 48
0.0
 49
0.0
140
0.0
141
0.0
142
1.0
143
1.263157894736842
 70
 11444
 72
     0
 73
     1
 74
     1
  7
monochrome.ctb
 75
     0
 76
     0
 77
     2
 78
   300
147
0.7916666666666665
148
-702.8076765758875
149
-496.2830551296954
100
AcDbLayout
  1
Model
 70
     1
 71
     0
 10
0.0
 20
0.0
 11
12.0
 21
9.0
 12
0.0
 22
0.0
 32
0.0
 14
-12.08503518499657
 24
-12.08503518499657
 34
0.0
 15
12.08503518499657
 25
12.08503518499657
 35
0.0
146
0.0
 13
0.0
 23
0.0
 33
0.0
 16
1.0
 26
0.0
 36
0.0
 17
0.0
 27
1.0
 37
0.0
 76
     0
330
15
331
25
  0
LAYOUT
  5
1D
102
{ACAD_REACTORS
330
19
330
19
102
}
330
19
100
AcDbPlotSettings
  1

  2
None
  4

  6

 40
0.0
 41
0.0
 42
0.0
 43
0.0
 44
0.0
 45
0.0
 46
0.0
 47
0.0
 48
0.0
 49
0.0
140
0.0
141
0.0
142
1.0
143
1.0
 70
   688
 72
     0
 73
     0
 74
     5
  7

 75
    16
 76
     0
 77
     2
 78
   300
147
1.0
148
0.0
149
0.0
100
AcDbLayout
  1
Sheet1
 70
     1
 71
     1
 10
0.0
 20
0.0
 11
12.0
 21
9.0
 12
0.0
 22
0.0
 32
0.0
 14
0.0
 24
0.0
 34
0.0
 15
0.0
 25
0.0
 35
0.0
146
0.0
 13
0.0
 23
0.0
 33
0.0
 16
1.0
 26
0.0
 36
0.0
 17
0.0
 27
1.0
 37
0.0
 76
     0
330
1A
  0
MATERIAL
  5
2A
102
{ACAD_REACTORS
330
7
102
}
330
7
100
AcDbMaterial
  1
ByBlock
 72
     1
 94
      127
  0
MATERIAL
  5
29
102
{ACAD_REACTORS
330
7
102
}
330
7
100
AcDbMaterial
  1
ByLayer
 72
     1
 94
       63
  0
MATERIAL
  5
6
102
{ACAD_REACTORS
330
7
102
}
330
7
100
AcDbMaterial
  1
Global
 72
     1
 94
       63
  0
MLINESTYLE
  5
12
102
{ACAD_REACTORS
330
13
102
}
330
13
100
AcDbMlineStyle
  2
STANDARD
 70
     0
  3

 62
   256
 51
90.0
 52
90.0
 71
     2
 49
0.5
 62
   256
  6
BYLAYER
 49
-0.5
 62
   256
  6
BYLAYER
  0
ACDBPLACEHOLDER
  5
3
102
{ACAD_REACTORS
330
4
102
}
330
4
  0
SCALE
  5
28
102
{ACAD_REACTORS
330
27
102
}
330
27
100
AcDbScale
 70
     0
300
1:1
140
1.0
141
1.0
290
     1
  0
VISUALSTYLE
  5
26
102
{ACAD_REACTORS
330
24
102
}
330
24
100
AcDbVisualStyle
  2
2dWireframe
 70
     4
 71
     0
 72
     2
 73
     1
 90
        0
 40
-0.6
 41
-30.0
 62
     5
 63
     7
421
 16777215
 74
     1
 91
        4
 64
     7
 65
   257
 75
     1
175
     1
 42
1.0
 92
        0
 66
   257
 43
1.0
 76
     1
 77
     6
 78
     2
 67
     7
 79
     5
170
     0
171
     0
290
     0
174
     0
 93
        1
 44
0.0
173
     0
291
     0
 45
0.0
  0
DICTIONARYVAR
  5
42
102
{ACAD_REACTORS
330
41
102
}
330
41
100
DictionaryVariables
280
     0
  1
1:1
  0
DICTIONARYVAR
  5
45
102
{ACAD_REACTORS
330
41
102
}
330
41
100
DictionaryVariables
280
     0
  1
0
  0
ENDSEC
  0
EOF
